# File created by Blade
# Date/Time:  Tue Jan 27 19:38:14 2015
# Frame Rate: 120.000 fps
#------------------------------------------------------
:FULLY-SPECIFIED
:DEGREES
2309
root 4.772503 32.283030 2.177327 -5.067830 -2.107448 0.248515
Spine 1.832880 1.440997 0.620171
Head 9.075672 -3.770486 1.627705
LeftShoulder -9.473170 -3.197044 25.704907
LeftArm -1.496790 35.814000 -100.979172
LeftForeArm 3.049351 -0.000000 12.290412
LeftHand 10.507300 -0.000000 -4.337050
LeftHandThumb1 -26.253704 0.000000 33.147579
RightShoulder -14.158680 -13.737557 -20.242524
RightArm 3.350951 44.842957 100.600422
RightForeArm 2.296523 0.000000 56.147853
RightHand 26.644921 -0.000000 -20.782466
RightHandThumb1 -24.326973 -0.000000 -32.862282
LeftUpLeg 9.330035 -1.718426 -3.814464
LeftLeg 3.452090 -0.000000 -0.000000
LeftFoot -18.595852 13.927090 -21.963689
LeftToeBase 16.999475 -0.000000 -0.000000
RightUpLeg 7.498000 -4.739250 2.536567
RightLeg 4.369293 -0.000000 -0.000000
RightFoot -13.631907 -13.535586 13.638264
RightToeBase 8.710588 -0.000000 -0.000000
2310
root 4.763652 32.283893 2.180226 -5.098015 -2.081456 0.226879
Spine 1.857139 1.455124 0.590883
Head 9.106573 -3.837440 1.680385
LeftShoulder -9.445786 -3.230501 25.718372
LeftArm -1.507554 35.861482 -100.957475
LeftForeArm 2.971083 -0.000000 12.266245
LeftHand 10.518458 -0.000000 -4.342834
LeftHandThumb1 -26.253704 0.000000 33.147579
RightShoulder -14.115535 -13.719323 -20.269911
RightArm 3.287613 44.759745 100.494639
RightForeArm 2.841564 -0.000000 55.353929
RightHand 26.554242 -0.000000 -20.735967
RightHandThumb1 -24.326973 -0.000000 -32.862282
LeftUpLeg 9.376826 -1.696484 -3.768332
LeftLeg 3.427977 -0.000000 -0.000000
LeftFoot -18.586125 13.856289 -22.000305
LeftToeBase 16.923961 -0.000000 -0.000000
RightUpLeg 7.579481 -4.635997 2.580430
RightLeg 4.285579 -0.000000 -0.000000
RightFoot -13.620828 -13.604881 13.746131
RightToeBase 8.767939 -0.000000 -0.000000
2311
root 4.760554 32.284135 2.178908 -5.097182 -2.048293 0.222544
Spine 1.855137 1.465754 0.558188
Head 9.126522 -3.890392 1.724995
LeftShoulder -9.429887 -3.254916 25.716974
LeftArm -1.494637 35.897957 -100.934044
LeftForeArm 2.965536 0.000000 12.226468
LeftHand 10.522145 -0.000000 -4.266763
LeftHandThumb1 -26.253704 0.000000 33.147579
RightShoulder -14.065796 -13.726595 -20.332369
RightArm 3.263332 44.644656 100.417884
RightForeArm 3.562316 -0.000000 54.471810
RightHand 26.362514 0.000000 -21.421307
RightHandThumb1 -24.326973 -0.000000 -32.862282
LeftUpLeg 9.368550 -1.715378 -3.760971
LeftLeg 3.442317 -0.000000 -0.000000
LeftFoot -18.581240 13.851179 -21.991871
LeftToeBase 16.888622 -0.000000 -0.000000
RightUpLeg 7.582663 -4.639664 2.591463
RightLeg 4.281156 -0.000000 -0.000000
RightFoot -13.631104 -13.619875 13.786758
RightToeBase 8.779905 -0.000000 -0.000000
2312
root 4.756942 32.284388 2.177718 -5.092227 -2.009482 0.225810
Spine 1.839867 1.488415 0.508783
Head 9.170320 -3.958080 1.765196
LeftShoulder -9.404308 -3.245042 25.715225
LeftArm -1.430448 35.960950 -100.879606
LeftForeArm 2.945558 0.000000 12.181607
LeftHand 10.519272 -0.000000 -4.299323
LeftHandThumb1 -26.253704 0.000000 33.147579
RightShoulder -14.029277 -13.765755 -20.368311
RightArm 3.257705 44.483441 100.332476
RightForeArm 4.097073 0.000000 53.446575
RightHand 26.420770 -0.000000 -21.600207
RightHandThumb1 -24.326973 -0.000000 -32.862282
LeftUpLeg 9.358997 -1.743506 -3.756046
LeftLeg 3.430194 -0.000000 -0.000000
LeftFoot -18.537444 13.863797 -21.929021
LeftToeBase 16.840548 -0.000000 -0.000000
RightUpLeg 7.576091 -4.686683 2.590280
RightLeg 4.288371 -0.000000 -0.000000
RightFoot -13.631788 -13.619480 13.764019
RightToeBase 8.811161 -0.000000 -0.000000
